DBRep_DrawableShape

CASCADE Topology V3, (c) Open Cascade
Locations 0
Curve2ds 59
1 0 0 1 0 
1 0 0 1 0 
1 100 0 0 -1 
1 0 0 0 1 
1 0 -50 1 0 
1 0 0 1 0 
1 0 0 0 -1 
1 0 0 0 1 
1 0 0 1 0 
1 0 60 1 0 
1 0 0 0 1 
1 0 0 1 0 
1 16.899999999999999 50 0 1 
1 0 0 1 0 
1 0 0 1 0 
1 16.899999999999999 50 1 0 
1 59.899999999999999 0 0 1 
1 0 0 1 0 
1 76.799999999999997 50 0 1 
1 100 0 0 1 
1 0 0 1 0 
1 0 0 0 1 
1 0 0 1 0 
1 100 0 0 1 
1 0 50 1 0 
1 100 0 0 -1 
1 60 0 0 1 
1 0 -50 1 0 
1 0 60 1 0 
1 0 0 0 1 
1 0 50 1 0 
1 16.899999999999999 50 0 1 
1 0 -50 1 0 
1 0 0 1 0 
1 16.899999999999999 50 1 0 
1 59.899999999999999 0 0 1 
1 0 50 1 0 
1 76.799999999999997 50 0 1 
1 0 0 0 1 
1 0 50 1 0 
1 0 0 0 -1 
1 60 0 0 1 
1 0 0 1 0 
2 0 0 1 0 -0 1 10
2 25 25 -1 0 0 1 10
1 0 0 0 -1 
1 10 0 0 1 
1 16.899999999999999 0 0 -1 
1 0 0 0 -1 
1 0 0 0 1 
1 59.899999999999999 0 0 -1 
1 0 0 0 1 
1 59.899999999999999 0 0 -1 
1 10 0 0 1 
1 76.799999999999997 0 0 -1 
1 0 50 1 0 
2 0 0 1 0 -0 1 10
1 6.2831853071795862 -0 0 1 
1 0 -0 0 1 
Curves 25
1 0 0 0 0 0 1 
1 0 0 100 -0 1 0 
1 0 50 0 0 0 1 
1 0 0 0 -0 1 0 
1 60 0 0 0 0 1 
1 50 0 16.899999999999999 1 0 -0 
1 50 0 16.899999999999999 0 0 1 
1 50 0 76.799999999999997 1 0 -0 
1 0 0 100 1 0 -0 
1 0 0 0 1 0 -0 
1 0 50 100 1 0 -0 
1 60 0 100 -0 1 0 
1 60 50 0 0 0 1 
1 50 50 16.899999999999999 1 0 -0 
1 50 50 16.899999999999999 0 0 1 
1 50 50 76.799999999999997 1 0 -0 
1 0 50 0 1 0 -0 
1 60 0 0 -0 1 0 
2 25 25 0 0 0 -1 -1 0 -0 0 1 0 10
1 60 0 16.899999999999999 -0 1 0 
1 50 0 16.899999999999999 -0 1 0 
1 50 0 76.799999999999997 -0 1 0 
1 60 0 76.799999999999997 -0 1 0 
2 25 25 -50 0 0 -1 -1 0 -0 0 1 0 10
1 15.000000000000002 24.999999999999996 0 0 0 -1 
Polygon3D 0
PolygonOnTriangulations 54
2 1 2 
p 0.6000000008 1 0 100 
2 3 4 
p 0.6000000008 1 0 100 
2 2 4 
p 0.6000000008 1 0 50 
2 1 2 
p 0.6000000008 1 0 50 
2 3 4 
p 0.6000000008 1 0 100 
2 3 4 
p 0.6000000008 1 0 100 
2 1 3 
p 0.6000000008 1 0 50 
2 1 2 
p 0.6000000008 1 0 50 
2 1 2 
p 0.6000000008 1 0 16.9 
2 1 2 
p 0.6000000008 1 0 16.9 
2 8 2 
p 0.6000000008 1 0 10 
2 1 3 
p 0.6000000008 1 0 10 
2 8 7 
p 0.6000000008 1 0 59.9 
2 1 2 
p 0.6000000008 1 0 59.9 
2 7 6 
p 0.6000000008 1 0 10 
2 1 3 
p 0.6000000008 1 0 10 
2 6 5 
p 0.6000000008 1 76.8 100 
2 1 2 
p 0.6000000008 1 76.8 100 
2 4 5 
p 0.6000000008 1 0 60 
2 1 3 
p 0.6000000008 1 0 60 
2 3 1 
p 0.6000000008 1 0 60 
2 1 3 
p 0.6000000008 1 0 60 
2 2 4 
p 0.6000000008 1 0 60 
2 4 5 
p 0.6000000008 1 0 60 
2 3 4 
p 0.6000000008 1 0 50 
2 2 4 
p 0.6000000008 1 0 50 
2 1 2 
p 0.6000000008 1 0 16.9 
2 3 4 
p 0.6000000008 1 0 16.9 
2 8 2 
p 0.6000000008 1 0 10 
2 2 4 
p 0.6000000008 1 0 10 
2 8 7 
p 0.6000000008 1 0 59.9 
2 3 4 
p 0.6000000008 1 0 59.9 
2 7 6 
p 0.6000000008 1 0 10 
2 2 4 
p 0.6000000008 1 0 10 
2 6 5 
p 0.6000000008 1 76.8 100 
2 3 4 
p 0.6000000008 1 76.8 100 
2 3 1 
p 0.6000000008 1 0 60 
2 2 4 
p 0.6000000008 1 0 60 
2 3 4 
p 0.6000000008 1 0 50 
2 1 3 
p 0.6000000008 1 0 50 
37 38 39 40 41 42 43 44 45 46 47 48 49 50 51 52 53 54 55 56 57 58 59 60 61 62 63 64 65 66 67 68 69 70 71 72 73 74 
p 0.6000000008 1 0 0.174532925199433 0.349065850398866 0.523598775598299 0.698131700797732 0.872664625997165 1.0471975511966 1.22173047639603 1.39626340159546 1.5707963267949 1.74532925199433 1.91986217719376 2.0943951023932 2.26892802759263 2.44346095279206 2.61799387799149 2.79252680319093 2.96705972839036 3.14159265358979 3.31612557878922 3.49065850398866 3.66519142918809 3.83972435438752 4.01425727958696 4.18879020478639 4.36332312998582 4.53785605518525 4.71238898038469 4.88692190558412 5.06145483078355 5.23598775598299 5.41052068118242 5.58505360638185 5.75958653158128 5.93411945678072 6.10865238198015 6.28318530717959 
37 5 6 7 8 9 10 11 12 13 14 15 16 17 18 19 20 21 22 23 24 25 26 27 28 29 30 31 32 33 34 35 36 37 38 39 40 5 
p 0.6000000008 1 0 0.174532925199433 0.349065850398866 0.523598775598299 0.698131700797732 0.872664625997165 1.0471975511966 1.22173047639603 1.39626340159546 1.5707963267949 1.74532925199433 1.91986217719376 2.0943951023932 2.26892802759263 2.44346095279206 2.61799387799149 2.79252680319093 2.96705972839036 3.14159265358979 3.31612557878922 3.49065850398866 3.66519142918809 3.83972435438752 4.01425727958696 4.18879020478639 4.36332312998582 4.53785605518525 4.71238898038469 4.88692190558412 5.06145483078355 5.23598775598299 5.41052068118242 5.58505360638185 5.75958653158128 5.93411945678072 6.10865238198015 6.28318530717959 
2 2 4 
p 0.6000000008 1 0 50 
2 3 4 
p 0.6000000008 1 0 50 
2 1 2 
p 0.6000000008 1 0 50 
2 1 3 
p 0.6000000008 1 0 50 
2 2 4 
p 0.6000000008 1 0 50 
2 1 2 
p 0.6000000008 1 0 50 
2 3 4 
p 0.6000000008 1 0 50 
2 1 3 
p 0.6000000008 1 0 50 
37 1 2 3 4 5 6 7 8 9 10 11 12 13 14 15 16 17 18 19 20 21 22 23 24 25 26 27 28 29 30 31 32 33 34 35 36 37 
p 0.6000000008 1 0 0.174532925199433 0.349065850398866 0.523598775598299 0.698131700797732 0.872664625997165 1.0471975511966 1.22173047639603 1.39626340159546 1.5707963267949 1.74532925199433 1.91986217719376 2.0943951023932 2.26892802759263 2.44346095279206 2.61799387799149 2.79252680319093 2.96705972839036 3.14159265358979 3.31612557878922 3.49065850398866 3.66519142918809 3.83972435438752 4.01425727958696 4.18879020478639 4.36332312998582 4.53785605518525 4.71238898038469 4.88692190558412 5.06145483078355 5.23598775598299 5.41052068118242 5.58505360638185 5.75958653158128 5.93411945678072 6.10865238198015 6.28318530717959 
37 1 2 3 4 5 6 7 8 9 10 11 12 13 14 15 16 17 18 19 20 21 22 23 24 25 26 27 28 29 30 31 32 33 34 35 36 1 
p 0.6000000008 1 0 0.174532925199433 0.349065850398866 0.523598775598299 0.698131700797732 0.872664625997165 1.0471975511966 1.22173047639603 1.39626340159546 1.5707963267949 1.74532925199433 1.91986217719376 2.0943951023932 2.26892802759263 2.44346095279206 2.61799387799149 2.79252680319093 2.96705972839036 3.14159265358979 3.31612557878922 3.49065850398866 3.66519142918809 3.83972435438752 4.01425727958696 4.18879020478639 4.36332312998582 4.53785605518525 4.71238898038469 4.88692190558412 5.06145483078355 5.23598775598299 5.41052068118242 5.58505360638185 5.75958653158128 5.93411945678072 6.10865238198015 6.28318530717959 
2 38 1 
p 0.6000000008 1 0 50 
2 74 37 
p 0.6000000008 1 0 50 
Surfaces 15
1 0 0 0 1 0 -0 0 0 1 0 -1 0 
1 0 0 0 -0 1 0 0 0 1 1 0 -0 
1 0 0 100 0 0 1 1 0 -0 -0 1 0 
1 0 50 0 -0 1 0 0 0 1 1 0 -0 
1 0 0 0 0 0 1 1 0 -0 -0 1 0 
1 60 0 0 1 0 -0 0 0 1 0 -1 0 
1 50 0 16.899999999999999 -0 1 0 0 0 1 1 0 -0 
1 50 0 16.899999999999999 0 0 1 1 0 -0 -0 1 0 
1 50 0 16.899999999999999 1 0 -0 0 0 1 0 -1 0 
1 50 0 76.799999999999997 0 0 1 1 0 -0 -0 1 0 
1 50 50 16.899999999999999 -0 1 0 0 0 1 1 0 -0 
2 25 25 0 0 0 -1 -1 0 -0 0 1 0 10
1 25 25 0 0 0 -1 -1 0 -0 0 1 0 
1 60 0 16.899999999999999 1 0 -0 0 0 1 0 -1 0 
1 25 25 -50 0 0 -1 -1 0 -0 0 1 0 
Triangulations 12
4 2 1 0 0
0 0 0 0 0 100 0 50 0 0 50 100 0 0 100 0 0 -50 100 -50 2 1 3 2 3 4 
8 6 1 0 0
60 0 0 60 0 16.9 0 0 0 0 0 100 60 0 100 60 0 76.8 50 0 76.8 50 0 16.9 0 60 16.9 60 0 0 100 0 100 60 76.8 60 76.8 50 16.9 50 8 1 3 2 1 8 7 3 4 7 8 3 5 6 7 5 7 4 
4 2 1 0 0
0 0 100 0 50 100 60 0 100 60 50 100 0 0 0 50 60 0 60 50 3 2 1 4 2 3 
8 6 1 0 0
60 50 0 60 50 16.9 0 50 0 0 50 100 60 50 100 60 50 76.8 50 50 76.8 50 50 16.9 0 60 16.9 60 0 0 100 0 100 60 76.8 60 76.8 50 16.9 50 8 1 3 2 1 8 7 3 4 7 8 3 5 6 7 5 7 4 
40 40 1 0 1.77635683940025e-15
0 0 0 0 50 0 60 0 0 60 50 0 15 25 0 15.1519224698779 26.7364817766693 0 15.6030737921409 28.4202014332567 0 16.3397459621556 30 0 17.3395555688102 31.4278760968654 0 18.5721239031346 32.6604444311898 0 20 33.6602540378444 0 21.5797985667433 34.3969262078591 0 23.2635182233307 34.8480775301221 0 25 35 0 26.7364817766693 34.8480775301221 0 28.4202014332567 34.3969262078591 0 30 33.6602540378444 0 31.4278760968654 32.6604444311898 0 32.6604444311898 31.4278760968654 0 33.6602540378444 30 0 34.3969262078591 28.4202014332567 0 34.8480775301221 26.7364817766693 0 35 25 0 34.8480775301221 23.2635182233307 0 34.3969262078591 21.5797985667433 0 33.6602540378444 20 0 32.6604444311898 18.5721239031346 0 31.4278760968654 17.3395555688102 0 30 16.3397459621556 0 28.4202014332567 15.6030737921409 0 26.7364817766693 15.1519224698779 0 25 15 0 23.2635182233307 15.1519224698779 0 21.5797985667433 15.6030737921409 0 20 16.3397459621556 0 18.5721239031346 17.3395555688102 0 17.3395555688102 18.5721239031346 0 16.3397459621556 20 0 15.6030737921409 21.5797985667433 0 15.1519224698779 23.2635182233307 0 0 0 0 50 60 0 60 50 15 25 15.1519224698779 26.7364817766693 15.6030737921409 28.4202014332567 16.3397459621556 30 17.3395555688102 31.4278760968654 18.5721239031346 32.6604444311898 20 33.6602540378444 21.5797985667433 34.3969262078591 23.2635182233307 34.8480775301221 25 35 26.7364817766693 34.8480775301221 28.4202014332567 34.3969262078591 30 33.6602540378444 31.4278760968654 32.6604444311898 32.6604444311898 31.4278760968654 33.6602540378444 30 34.3969262078591 28.4202014332567 34.8480775301221 26.7364817766693 35 25 34.8480775301221 23.2635182233307 34.3969262078591 21.5797985667433 33.6602540378444 20 32.6604444311898 18.5721239031346 31.4278760968654 17.3395555688102 30 16.3397459621556 28.4202014332567 15.6030737921409 26.7364817766693 15.1519224698779 25 15 23.2635182233307 15.1519224698779 21.5797985667433 15.6030737921409 20 16.3397459621556 18.5721239031346 17.3395555688102 17.3395555688102 18.5721239031346 16.3397459621556 20 15.6030737921409 21.5797985667433 15.1519224698779 23.2635182233307 36 37 1 38 1 37 35 36 1 39 1 38 34 35 1 40 1 39 33 34 1 5 1 40 32 33 1 31 32 1 2 5 6 2 6 7 2 7 8 2 8 9 2 1 5 10 2 9 11 2 10 12 2 11 13 2 12 3 24 25 3 25 26 3 26 27 3 27 28 3 28 29 3 29 30 3 30 31 3 31 1 14 2 13 23 24 3 15 2 14 4 2 15 4 15 16 4 16 17 4 17 18 4 18 19 4 19 20 4 20 21 4 21 22 4 22 23 4 23 3 
4 2 1 0 0
60 0 0 60 0 16.9 60 50 0 60 50 16.9 0 0 16.9 0 0 -50 16.9 -50 1 3 4 2 1 4 
4 2 1 0 0
50 0 16.9 50 50 16.9 60 0 16.9 60 50 16.9 0 0 0 50 10 0 10 50 4 2 1 4 1 3 
4 2 1 0 7.105427357601e-15
50 0 16.9 50 0 76.8 50 50 16.9 50 50 76.8 0 0 59.9 0 0 -50 59.9 -50 2 1 3 2 3 4 
4 2 1 0 0
50 0 76.8 50 50 76.8 60 0 76.8 60 50 76.8 0 0 0 50 10 0 10 50 4 2 1 4 1 3 
4 2 1 0 0
60 0 76.8 60 0 100 60 50 76.8 60 50 100 76.8 0 100 0 76.8 -50 100 -50 1 3 4 2 1 4 
74 72 1 0 0.0380530190825497
15 25 -50 15.1519224698779 26.7364817766693 -50 15.6030737921409 28.4202014332567 -50 16.3397459621556 30 -50 17.3395555688102 31.4278760968654 -50 18.5721239031346 32.6604444311898 -50 20 33.6602540378444 -50 21.5797985667433 34.3969262078591 -50 23.2635182233307 34.8480775301221 -50 25 35 -50 26.7364817766693 34.8480775301221 -50 28.4202014332567 34.3969262078591 -50 30 33.6602540378444 -50 31.4278760968654 32.6604444311898 -50 32.6604444311898 31.4278760968654 -50 33.6602540378444 30 -50 34.3969262078591 28.4202014332567 -50 34.8480775301221 26.7364817766693 -50 35 25 -50 34.8480775301221 23.2635182233307 -50 34.3969262078591 21.5797985667433 -50 33.6602540378444 20 -50 32.6604444311898 18.5721239031346 -50 31.4278760968654 17.3395555688102 -50 30 16.3397459621556 -50 28.4202014332567 15.6030737921409 -50 26.7364817766693 15.1519224698779 -50 25 15 -50 23.2635182233307 15.1519224698779 -50 21.5797985667433 15.6030737921409 -50 20 16.3397459621556 -50 18.5721239031346 17.3395555688102 -50 17.3395555688102 18.5721239031346 -50 16.3397459621556 20 -50 15.6030737921409 21.5797985667433 -50 15.1519224698779 23.2635182233307 -50 15 25 -50 15 25 0 15.1519224698779 26.7364817766693 0 15.6030737921409 28.4202014332567 0 16.3397459621556 30 0 17.3395555688102 31.4278760968654 0 18.5721239031346 32.6604444311898 0 20 33.6602540378444 0 21.5797985667433 34.3969262078591 0 23.2635182233307 34.8480775301221 0 25 35 0 26.7364817766693 34.8480775301221 0 28.4202014332567 34.3969262078591 0 30 33.6602540378444 0 31.4278760968654 32.6604444311898 0 32.6604444311898 31.4278760968654 0 33.6602540378444 30 0 34.3969262078591 28.4202014332567 0 34.8480775301221 26.7364817766693 0 35 25 0 34.8480775301221 23.2635182233307 0 34.3969262078591 21.5797985667433 0 33.6602540378444 20 0 32.6604444311898 18.5721239031346 0 31.4278760968654 17.3395555688102 0 30 16.3397459621556 0 28.4202014332567 15.6030737921409 0 26.7364817766693 15.1519224698779 0 25 15 0 23.2635182233307 15.1519224698779 0 21.5797985667433 15.6030737921409 0 20 16.3397459621556 0 18.5721239031346 17.3395555688102 0 17.3395555688102 18.5721239031346 0 16.3397459621556 20 0 15.6030737921409 21.5797985667433 0 15.1519224698779 23.2635182233307 0 15 25 0 0 50 0.174532925199433 50 0.349065850398866 50 0.523598775598299 50 0.698131700797732 50 0.872664625997165 50 1.0471975511966 50 1.22173047639603 50 1.39626340159546 50 1.5707963267949 50 1.74532925199433 50 1.91986217719376 50 2.0943951023932 50 2.26892802759263 50 2.44346095279206 50 2.61799387799149 50 2.79252680319093 50 2.96705972839036 50 3.14159265358979 50 3.31612557878922 50 3.49065850398866 50 3.66519142918809 50 3.83972435438752 50 4.01425727958696 50 4.18879020478639 50 4.36332312998582 50 4.53785605518525 50 4.71238898038469 50 4.88692190558412 50 5.06145483078355 50 5.23598775598299 50 5.41052068118242 50 5.58505360638185 50 5.75958653158128 50 5.93411945678072 50 6.10865238198015 50 6.28318530717959 50 0 0 0.174532925199433 0 0.349065850398866 0 0.523598775598299 0 0.698131700797732 0 0.872664625997165 0 1.0471975511966 0 1.22173047639603 0 1.39626340159546 0 1.5707963267949 0 1.74532925199433 0 1.91986217719376 0 2.0943951023932 0 2.26892802759263 0 2.44346095279206 0 2.61799387799149 0 2.79252680319093 0 2.96705972839036 0 3.14159265358979 0 3.31612557878922 0 3.49065850398866 0 3.66519142918809 0 3.83972435438752 0 4.01425727958696 0 4.18879020478639 0 4.36332312998582 0 4.53785605518525 0 4.71238898038469 0 4.88692190558412 0 5.06145483078355 0 5.23598775598299 0 5.41052068118242 0 5.58505360638185 0 5.75958653158128 0 5.93411945678072 0 6.10865238198015 0 6.28318530717959 0 2 1 38 2 38 39 3 39 40 3 2 39 4 40 41 4 3 40 5 41 42 5 42 43 5 4 41 6 43 44 6 5 43 7 6 44 8 7 44 8 44 45 9 8 45 9 45 46 10 9 46 10 46 47 11 10 47 11 47 48 12 11 48 12 48 49 13 12 49 13 49 50 14 13 50 14 50 51 15 14 51 15 51 52 16 15 52 16 52 53 17 16 53 17 53 54 18 17 54 18 54 55 18 55 56 19 18 56 20 56 57 20 19 56 21 57 58 21 20 57 22 58 59 22 21 58 23 59 60 23 22 59 24 60 61 24 23 60 25 61 62 25 24 61 26 62 63 26 25 62 27 63 64 27 64 65 27 26 63 28 27 65 29 65 66 29 28 65 30 66 67 30 29 66 31 67 68 31 30 67 32 31 68 32 68 69 33 32 69 33 69 70 34 33 70 34 70 71 35 34 71 35 71 72 36 35 72 36 72 73 37 36 73 37 73 74 
36 34 1 0 7.94410929039127e-15
15 25 -50 15.1519224698779 26.7364817766693 -50 15.6030737921409 28.4202014332567 -50 16.3397459621556 30 -50 17.3395555688102 31.4278760968654 -50 18.5721239031346 32.6604444311898 -50 20 33.6602540378444 -50 21.5797985667433 34.3969262078591 -50 23.2635182233307 34.8480775301221 -50 25 35 -50 26.7364817766693 34.8480775301221 -50 28.4202014332567 34.3969262078591 -50 30 33.6602540378444 -50 31.4278760968654 32.6604444311898 -50 32.6604444311898 31.4278760968654 -50 33.6602540378444 30 -50 34.3969262078591 28.4202014332567 -50 34.8480775301221 26.7364817766693 -50 35 25 -50 34.8480775301221 23.2635182233307 -50 34.3969262078591 21.5797985667433 -50 33.6602540378444 20 -50 32.6604444311898 18.5721239031346 -50 31.4278760968654 17.3395555688102 -50 30 16.3397459621556 -50 28.4202014332567 15.6030737921409 -50 26.7364817766693 15.1519224698779 -50 25 15 -50 23.2635182233307 15.1519224698779 -50 21.5797985667433 15.6030737921409 -50 20 16.3397459621556 -50 18.5721239031346 17.3395555688102 -50 17.3395555688102 18.5721239031346 -50 16.3397459621556 20 -50 15.6030737921409 21.5797985667433 -50 15.1519224698779 23.2635182233307 -50 10 -1.77635683940025e-15 9.84807753012208 1.7364817766693 9.39692620785909 3.42020143325669 8.66025403784439 5 7.66044443118978 6.42787609686539 6.42787609686539 7.66044443118978 5 8.66025403784439 3.42020143325669 9.39692620785908 1.7364817766693 9.84807753012208 0 10 -1.7364817766693 9.84807753012208 -3.42020143325669 9.39692620785909 -5 8.66025403784439 -6.42787609686539 7.66044443118978 -7.66044443118978 6.4278760968654 -8.66025403784438 5.00000000000001 -9.39692620785908 3.4202014332567 -9.84807753012208 1.73648177666932 -10 1.4210854715202e-14 -9.84807753012208 -1.73648177666929 -9.39692620785909 -3.42020143325667 -8.6602540378444 -4.99999999999998 -7.6604444311898 -6.42787609686538 -6.42787609686541 -7.66044443118977 -5.00000000000002 -8.66025403784437 -3.42020143325671 -9.39692620785907 -1.73648177666933 -9.84807753012208 -2.8421709430404e-14 -10 1.73648177666927 -9.84807753012209 3.42020143325666 -9.3969262078591 4.99999999999997 -8.6602540378444 6.42787609686536 -7.6604444311898 7.66044443118976 -6.42787609686542 8.66025403784437 -5.00000000000004 9.39692620785907 -3.42020143325673 9.84807753012207 -1.73648177666935 22 23 24 20 21 22 28 26 27 18 19 20 18 24 25 18 22 24 18 20 22 30 28 29 31 25 26 31 26 28 31 28 30 33 31 32 13 14 15 13 15 16 13 16 17 13 17 18 35 33 34 35 31 33 36 18 25 36 25 31 36 31 35 11 12 13 11 13 18 9 10 11 2 36 1 8 9 11 8 11 18 3 36 2 4 36 3 4 7 8 4 18 36 4 8 18 6 7 4 6 4 5 

TShapes 72
Ve
1e-07
0 0 100
0 0

0101101
*
Ve
1e-07
0 0 0
0 0

0101101
*
Ed
 1e-07 1 1 0
1  1 0 0 100
2  1 1 0 0 100
2  2 2 0 0 100
6  1 1 0
6  2 2 0
0

0101000
-72 0 +71 0 *
Ve
1e-07
0 50 100
0 0

0101101
*
Ed
 1e-07 1 1 0
1  2 0 0 50
2  3 1 0 0 50
2  4 3 0 0 50
6  3 1 0
6  4 3 0
0

0101000
-69 0 +72 0 *
Ve
1e-07
0 50 0
0 0

0101101
*
Ed
 1e-07 1 1 0
1  3 0 0 100
2  5 1 0 0 100
2  6 4 0 0 100
6  5 1 0
6  6 4 0
0

0101000
-69 0 +67 0 *
Ed
 1e-07 1 1 0
1  4 0 0 50
2  7 1 0 0 50
2  8 5 0 0 50
6  7 1 0
6  8 5 0
0

0101000
-67 0 +71 0 *
Wi

0101100
-70 0 -68 0 +66 0 +65 0 *
Fa
0  1e-07 1 0
2  1
0101000
+64 0 *
Ve
1e-07
60 0 0
0 0

0101101
*
Ve
1e-07
60 0 16.9
0 0

0101101
*
Ed
 1e-07 1 1 0
1  5 0 0 16.9
2  9 6 0 0 16.9
2  10 2 0 0 16.9
6  9 2 0
6  10 6 0
0

0101000
+62 0 -61 0 *
Ve
1e-07
50 0 16.9
0 0

0101101
*
Ed
 1e-07 1 1 0
1  6 0 0 10
2  11 7 0 0 10
2  12 8 0 0 10
2  13 2 0 0 10
6  11 2 0
6  12 7 0
0

0101000
-61 0 +59 0 *
Ve
1e-07
50 0 76.8
0 0

0101101
*
Ed
 1e-07 1 1 0
1  7 0 0 59.9
2  14 9 0 0 59.9
2  15 7 0 0 59.9
2  16 2 0 0 59.9
6  13 2 0
6  14 8 0
0

0101000
-57 0 +59 0 *
Ve
1e-07
60 0 76.8
0 0

0101101
*
Ed
 1e-07 1 1 0
1  8 0 0 10
2  17 7 0 0 10
2  18 10 0 0 10
2  19 2 0 0 10
6  15 2 0
6  16 9 0
0

0101000
-55 0 +57 0 *
Ve
1e-07
60 0 100
0 0

0101101
*
Ed
 1e-07 1 1 0
1  5 0 76.8 100
2  9 6 0 76.8 100
2  10 2 0 76.8 100
6  17 2 0
6  18 10 0
0

0101000
+55 0 -53 0 *
Ed
 1e-07 1 1 0
1  9 0 0 60
2  20 2 0 0 60
2  21 3 0 0 60
6  19 2 0
6  20 3 0
0

0101000
-53 0 +72 0 *
Ed
 1e-07 1 1 0
1  10 0 0 60
2  22 2 0 0 60
2  23 5 0 0 60
6  21 2 0
6  22 5 0
0

0101000
-62 0 +71 0 *
Wi

0101100
-60 0 +58 0 -56 0 -54 0 -52 0 +51 0 +70 0 -50 0 *
Fa
0  1e-07 2 0
2  2
0101000
+49 0 *
Ve
1e-07
60 50 100
0 0

0101101
*
Ed
 1e-07 1 1 0
1  11 0 0 60
2  24 4 0 0 60
2  25 3 0 0 60
6  23 3 0
6  24 4 0
0

0101000
-47 0 +69 0 *
Ed
 1e-07 1 1 0
1  12 0 0 50
2  26 6 0 0 50
2  27 3 0 0 50
6  25 3 0
6  26 10 0
0

0101000
-47 0 +53 0 *
Wi

0101100
-68 0 -46 0 +45 0 +51 0 *
Fa
0  1e-07 3 0
2  3
0101000
+44 0 *
Ve
1e-07
60 50 0
0 0

0101101
*
Ve
1e-07
60 50 16.9
0 0

0101101
*
Ed
 1e-07 1 1 0
1  13 0 0 16.9
2  28 6 0 0 16.9
2  29 4 0 0 16.9
6  27 4 0
6  28 6 0
0

0101000
+42 0 -41 0 *
Ve
1e-07
50 50 16.9
0 0

0101101
*
Ed
 1e-07 1 1 0
1  14 0 0 10
2  30 11 0 0 10
2  31 8 0 0 10
2  32 4 0 0 10
6  29 4 0
6  30 7 0
0

0101000
-41 0 +39 0 *
Ve
1e-07
50 50 76.8
0 0

0101101
*
Ed
 1e-07 1 1 0
1  15 0 0 59.9
2  33 9 0 0 59.9
2  34 11 0 0 59.9
2  35 4 0 0 59.9
6  31 4 0
6  32 8 0
0

0101000
-37 0 +39 0 *
Ve
1e-07
60 50 76.8
0 0

0101101
*
Ed
 1e-07 1 1 0
1  16 0 0 10
2  36 11 0 0 10
2  37 10 0 0 10
2  38 4 0 0 10
6  33 4 0
6  34 9 0
0

0101000
-35 0 +37 0 *
Ed
 1e-07 1 1 0
1  13 0 76.8 100
2  28 6 0 76.8 100
2  29 4 0 76.8 100
6  35 4 0
6  36 10 0
0

0101000
+35 0 -47 0 *
Ed
 1e-07 1 1 0
1  17 0 0 60
2  39 4 0 0 60
2  40 5 0 0 60
6  37 4 0
6  38 5 0
0

0101000
-42 0 +67 0 *
Wi

0101100
-40 0 +38 0 -36 0 -34 0 -33 0 +46 0 +66 0 -32 0 *
Fa
0  1e-07 4 0
2  4
0101000
+31 0 *
Ed
 1e-07 1 1 0
1  18 0 0 50
2  41 6 0 0 50
2  42 5 0 0 50
6  39 5 0
6  40 6 0
0

0101000
-42 0 +62 0 *
Wi

0101100
-65 0 -32 0 +50 0 +29 0 *
Ve
1e-07
15 25 0
0 0

0101101
*
Ed
 1e-07 1 1 0
1  19 0 0 6.28318530717959
2  43 12 0 0 6.28318530717959
2  44 13 0 0 6.28318530717959
2  45 5 0 0 6.28318530717959
6  41 11 0
6  42 5 0
0

0101000
+27 0 -27 0 *
Wi

0101100
+26 0 *
Fa
0  1e-07 5 0
2  5
0101000
+28 0 +25 0 *
Ed
 1e-07 1 1 0
1  20 0 0 50
2  46 14 0 0 50
2  47 8 0 0 50
2  48 6 0 0 50
6  43 6 0
6  44 7 0
0

0101000
-41 0 +61 0 *
Wi

0101100
-60 0 -23 0 +40 0 +29 0 *
Fa
0  1e-07 6 0
2  6
0101000
+22 0 *
Ed
 1e-07 1 1 0
1  21 0 0 50
2  49 9 0 0 50
2  50 8 0 0 50
6  45 7 0
6  46 8 0
0

0101000
-39 0 +59 0 *
Wi

0101100
-20 0 -38 0 +23 0 +58 0 *
Fa
0  1e-07 8 0
2  7
0101000
+19 0 *
Ed
 1e-07 1 1 0
1  22 0 0 50
2  51 9 0 0 50
2  52 10 0 0 50
6  47 8 0
6  48 9 0
0

0101000
-37 0 +57 0 *
Wi

0101100
-56 0 -17 0 +36 0 +20 0 *
Fa
0  1e-07 9 0
2  8
0101000
+16 0 *
Ed
 1e-07 1 1 0
1  23 0 0 50
2  53 14 0 0 50
2  54 10 0 0 50
2  55 6 0 0 50
6  49 9 0
6  50 10 0
0

0101000
-35 0 +55 0 *
Wi

0101100
-17 0 -34 0 +14 0 +54 0 *
Fa
0  1e-07 10 0
2  9
0101000
+13 0 *
Wi

0101100
-52 0 -45 0 +33 0 +14 0 *
Fa
0  1e-07 6 0
2  10
0101000
+11 0 *
Ve
1e-07
15 25 -50
0 0

0101101
*
Ed
 1e-07 1 1 0
1  24 0 0 6.28318530717959
2  56 12 0 0 6.28318530717959
2  57 15 0 0 6.28318530717959
6  51 11 0
6  52 12 0
0

0101000
+9 0 -9 0 *
Ed
 1e-07 1 1 0
1  25 0 0 50
3  58 59CN 12 0 0 50
7  53 54 11 0
0

0101000
-9 0 +27 0 *
Wi

0101100
-8 0 +7 0 +26 0 -7 0 *
Fa
0  1e-07 12 0
2  11
0101000
+6 0 *
Wi

0101100
+8 0 *
Fa
0  1e-07 15 0
2  12
0101000
+4 0 *
Sh

0101100
-63 0 -48 0 +43 0 +30 0 -24 0 +21 0 +18 0 +15 0 -12 0 +10 0 
+5 0 +3 0 *
So

0100000
+2 0 *

+1 0 