DBRep_DrawableShape

CASCADE Topology V1, (c) Matra-Datavision
Locations 0
Curve2ds 36
1 0 0 1 0 
1 0 0 1 0 
1 10 0 0 -1 
1 0 0 0 1 
1 0 -10 1 0 
1 0 0 1 0 
1 0 0 0 -1 
1 0 0 0 1 
1 0 0 0 1 
1 0 0 1 0 
1 0 10 1 0 
1 0 0 1 0 
1 10 0 0 1 
1 0 0 1 0 
1 0 10 1 0 
1 10 0 0 1 
1 10 0 0 1 
1 10 0 0 -1 
1 0 0 0 1 
1 0 10 1 0 
1 0 10 1 0 
1 0 -10 1 0 
1 10 0 0 1 
1 0 0 0 -1 
2 5 5 1 0 -0 1 1
1 0 6 1 0 
2 5 5 1 0 -0 1 1
1 0 6 1 0 
1 6.2831853071795862 -0 0 1 
1 0 -0 0 1 
1 0 9 1 0 
2 0 0 1 0 -0 1 1
1 6.2831853071795862 -0 0 1 
1 0 -0 0 1 
1 0 0 1 0 
2 0 0 1 0 -0 1 1
Curves 17
1 -5 -5 0 0 0 1 
1 -5 -5 10 -0 1 0 
1 -5 5 0 0 0 1 
1 -5 -5 0 -0 1 0 
1 -5 -5 0 1 0 -0 
1 5 -5 0 0 0 1 
1 -5 -5 10 1 0 -0 
1 -5 5 10 1 0 -0 
1 5 -5 10 -0 1 0 
1 -5 5 0 1 0 -0 
1 5 5 0 0 0 1 
1 5 -5 0 -0 1 0 
2 0 0 0 0 0 1 1 0 -0 -0 1 0 1
1 1 -2.4492935982947064e-16 -6 0 0 1 
2 0 0 3 0 0 1 1 0 -0 -0 1 0 1
1 1 -2.4492935982947064e-16 -6 0 0 1 
2 0 0 -6 0 0 1 1 0 -0 -0 1 0 1
Polygon3D 0
PolygonOnTriangulations 0
Surfaces 11
1 -5 -5 0 1 0 -0 0 0 1 0 -1 0 
1 -5 -5 0 -0 1 0 0 0 1 1 0 -0 
1 -5 -5 10 0 0 1 1 0 -0 -0 1 0 
1 -5 5 0 -0 1 0 0 0 1 1 0 -0 
1 -5 -5 0 0 0 1 1 0 -0 -0 1 0 
1 5 -5 0 1 0 -0 0 0 1 0 -1 0 
2 0 0 -6 0 0 1 1 0 -0 -0 1 0 1
1 -5 -5 0 0 0 1 1 0 -0 -0 1 0 
2 0 0 -6 0 0 1 1 0 -0 -0 1 0 1
1 0 0 3 0 0 1 1 0 -0 -0 1 0 
1 0 0 -6 0 0 1 1 0 -0 -0 1 0 
Triangulations 0

TShapes 58
Ve
1e-07
-5 -5 10
0 0

0101101
*
Ve
1e-07
-5 -5 0
0 0

0101101
*
Ed
 1e-07 1 1 0
1  1 0 0 10
2  1 1 0 0 10
2  2 2 0 0 10
0

0101000
-58 0 +57 0 *
Ve
1e-07
-5 5 10
0 0

0101101
*
Ed
 1e-07 1 1 0
1  2 0 0 10
2  3 1 0 0 10
2  4 3 0 0 10
0

0101000
-55 0 +58 0 *
Ve
1e-07
-5 5 0
0 0

0101101
*
Ed
 1e-07 1 1 0
1  3 0 0 10
2  5 1 0 0 10
2  6 4 0 0 10
0

0101000
-55 0 +53 0 *
Ed
 1e-07 1 1 0
1  4 0 0 10
2  7 1 0 0 10
2  8 5 0 0 10
0

0101000
-53 0 +57 0 *
Wi

0101100
-56 0 -54 0 +52 0 +51 0 *
Fa
0  1e-07 1 0

0101000
+50 0 *
Ve
1e-07
5 -5 0
0 0

0101101
*
Ed
 1e-07 1 1 0
1  5 0 0 10
2  9 2 0 0 10
2  10 5 0 0 10
0

0101000
-48 0 +57 0 *
Ve
1e-07
5 -5 10
0 0

0101101
*
Ed
 1e-07 1 1 0
1  6 0 0 10
2  11 2 0 0 10
2  12 6 0 0 10
0

0101000
-46 0 +48 0 *
Ed
 1e-07 1 1 0
1  7 0 0 10
2  13 2 0 0 10
2  14 3 0 0 10
0

0101000
-46 0 +58 0 *
Wi

0101100
-47 0 -45 0 +44 0 +56 0 *
Fa
0  1e-07 2 0

0101000
+43 0 *
Ve
1e-07
5 5 10
0 0

0101101
*
Ed
 1e-07 1 1 0
1  8 0 0 10
2  15 3 0 0 10
2  16 4 0 0 10
0

0101000
-41 0 +55 0 *
Ed
 1e-07 1 1 0
1  9 0 0 10
2  17 3 0 0 10
2  18 6 0 0 10
0

0101000
-41 0 +46 0 *
Wi

0101100
-54 0 -40 0 +39 0 +44 0 *
Fa
0  1e-07 3 0

0101000
+38 0 *
Ve
1e-07
5 5 0
0 0

0101101
*
Ed
 1e-07 1 1 0
1  10 0 0 10
2  19 4 0 0 10
2  20 5 0 0 10
0

0101000
-36 0 +53 0 *
Ed
 1e-07 1 1 0
1  11 0 0 10
2  21 4 0 0 10
2  22 6 0 0 10
0

0101000
-41 0 +36 0 *
Wi

0101100
-35 0 -34 0 +40 0 +52 0 *
Fa
0  1e-07 4 0

0101000
+33 0 *
Ed
 1e-07 1 1 0
1  12 0 0 10
2  23 5 0 0 10
2  24 6 0 0 10
0

0101000
-36 0 +48 0 *
Wi

0101100
-51 0 -35 0 +47 0 +31 0 *
Ve
1.00000000244929e-07
1 -2.44929359829471e-16 0
0 0

0101101
*
Ed
 1e-07 1 1 0
1  13 0 0 6.28318530717959
2  25 5 0 0 6.28318530717959
2  26 7 0 0 6.28318530717959
2  27 8 0 0 6.28318530717959
2  28 9 0 0 6.28318530717959
0

0101000
+29 0 -29 0 *
Wi

0101100
-28 0 *
Fa
0  1e-07 5 0

0101000
+30 0 +27 0 *
Wi

0101100
-45 0 -39 0 +34 0 +31 0 *
Fa
0  1e-07 6 0

0101000
+25 0 *
Ve
1e-07
1 -2.44929359829471e-16 3
0 0

0101101
*
Ed
 1e-07 1 1 0
1  14 0 6 9
3  29 30CN 7 0 6 9
0

0101000
+29 0 -23 0 *
Ed
 1e-07 1 1 0
1  15 0 0 6.28318530717959
2  31 7 0 0 6.28318530717959
2  32 10 0 0 6.28318530717959
0

0101000
+23 0 -23 0 *
Wi

0101100
+22 0 +28 0 -22 0 -21 0 *
Fa
0  1e-07 7 0

0101000
+20 0 *
Wi

0101100
+21 0 *
Fa
0  1e-07 10 0

0101000
+18 0 *
Sh

0101100
-49 0 -42 0 +37 0 +32 0 -26 0 +24 0 -19 0 -17 0 *
So

0100000
+16 0 *
Wi

0101100
+28 0 *
Fa
0  1e-07 8 0

0101000
+14 0 *
Sh

0101100
-13 0 +19 0 +17 0 *
So

0100000
+12 0 *
Ve
1e-07
1 -2.44929359829471e-16 -6
0 0

0101101
*
Ed
 1e-07 1 1 0
1  16 0 0 6
3  33 34CN 9 0 0 6
0

0101000
+10 0 -29 0 *
Ed
 1e-07 1 1 0
1  17 0 0 6.28318530717959
2  35 9 0 0 6.28318530717959
2  36 11 0 0 6.28318530717959
0

0101000
+10 0 -10 0 *
Wi

0101100
-28 0 +9 0 +8 0 -9 0 *
Fa
0  1e-07 9 0

0101000
+7 0 *
Wi

0101100
-8 0 *
Fa
0  1e-07 11 0

0101000
-5 0 *
Sh

0101100
+6 0 +13 0 -4 0 *
So

0100000
+3 0 *
Co

1100000
+15 0 +11 0 +2 0 *

+1 0 
0

