DBRep_DrawableShape

CASCADE Topology V1, (c) Matra-Datavision
Locations 0
Curve2ds 54
1 0 0 1 0 
1 0 0 1 0 
1 100 0 0 -1 
1 0 0 0 1 
1 0 -50 1 0 
1 0 0 1 0 
1 0 0 0 -1 
1 0 0 0 1 
1 0 60 1 0 
1 0 0 1 0 
1 16.899999999999999 50 0 1 
1 0 0 1 0 
1 16.899999999999999 50 1 0 
1 0 0 1 0 
1 76.799999999999997 50 0 1 
1 0 0 1 0 
1 0 60 1 0 
1 0 0 1 0 
1 100 0 0 1 
1 0 0 1 0 
1 0 0 0 1 
1 0 0 1 0 
1 0 50 1 0 
1 100 0 0 1 
1 60 0 0 1 
1 100 0 0 -1 
1 0 60 1 0 
1 0 -50 1 0 
1 16.899999999999999 50 0 1 
1 0 50 1 0 
1 16.899999999999999 50 1 0 
1 0 -50 1 0 
1 76.799999999999997 50 0 1 
1 0 50 1 0 
1 0 60 1 0 
1 0 -50 1 0 
1 0 0 0 1 
1 0 50 1 0 
1 60 0 0 1 
1 0 0 0 -1 
2 25 25 -1 0 0 1 10
1 0 0 1 0 
1 16.899999999999999 0 0 -1 
1 10 0 0 1 
1 0 0 0 1 
1 0 0 0 -1 
1 59.899999999999999 0 0 -1 
1 0 0 0 1 
1 10 0 0 1 
1 76.799999999999997 0 0 -1 
1 0 50 1 0 
2 0 0 1 0 -0 1 10
1 6.2831853071795862 -0 0 1 
1 0 -0 0 1 
Curves 27
1 0 0 0 0 0 1 
1 0 0 100 -0 1 0 
1 0 50 0 0 0 1 
1 0 0 0 -0 1 0 
1 60 0 0 0 0 1 
1 50 0 16.899999999999999 1 0 -0 
1 50 0 16.899999999999999 0 0 1 
1 50 0 76.799999999999997 1 0 -0 
1 60 0 0 0 0 1 
1 0 0 100 1 0 -0 
1 0 0 0 1 0 -0 
1 0 50 100 1 0 -0 
1 60 0 100 -0 1 0 
1 60 50 0 0 0 1 
1 50 50 16.899999999999999 1 0 -0 
1 50 50 16.899999999999999 0 0 1 
1 50 50 76.799999999999997 1 0 -0 
1 60 50 0 0 0 1 
1 0 50 0 1 0 -0 
1 60 0 0 -0 1 0 
2 25 25 0 0 0 -1 -1 0 -0 0 1 0 10
1 60 0 16.899999999999999 -0 1 0 
1 50 0 16.899999999999999 -0 1 0 
1 50 0 76.799999999999997 -0 1 0 
1 60 0 76.799999999999997 -0 1 0 
2 25 25 -50 0 0 -1 -1 0 -0 0 1 0 10
1 15.000000000000002 24.999999999999996 0 0 0 -1 
Polygon3D 0
PolygonOnTriangulations 0
Surfaces 12
1 0 0 0 1 0 -0 0 0 1 0 -1 0 
1 0 0 0 -0 1 0 0 0 1 1 0 -0 
1 0 0 100 0 0 1 1 0 -0 -0 1 0 
1 0 50 0 -0 1 0 0 0 1 1 0 -0 
1 0 0 0 0 0 1 1 0 -0 -0 1 0 
1 60 0 0 1 0 -0 0 0 1 0 -1 0 
1 50 0 16.899999999999999 0 0 1 1 0 -0 -0 1 0 
1 50 0 16.899999999999999 1 0 -0 0 0 1 0 -1 0 
1 50 0 76.799999999999997 0 0 1 1 0 -0 -0 1 0 
1 60 0 0 1 0 -0 0 0 1 0 -1 0 
2 25 25 0 0 0 -1 -1 0 -0 0 1 0 10
1 25 25 -50 0 0 -1 -1 0 -0 0 1 0 
Triangulations 0

TShapes 72
Ve
1e-07
0 0 100
0 0

0101101
*
Ve
1e-07
0 0 0
0 0

0101101
*
Ed
 1e-07 1 1 0
1  1 0 0 100
2  1 1 0 0 100
2  2 2 0 0 100
0

0101000
-72 0 +71 0 *
Ve
1e-07
0 50 100
0 0

0101101
*
Ed
 1e-07 1 1 0
1  2 0 0 50
2  3 1 0 0 50
2  4 3 0 0 50
0

0101000
-69 0 +72 0 *
Ve
1e-07
0 50 0
0 0

0101101
*
Ed
 1e-07 1 1 0
1  3 0 0 100
2  5 1 0 0 100
2  6 4 0 0 100
0

0101000
-69 0 +67 0 *
Ed
 1e-07 1 1 0
1  4 0 0 50
2  7 1 0 0 50
2  8 5 0 0 50
0

0101000
-67 0 +71 0 *
Wi

0101100
-70 0 -68 0 +66 0 +65 0 *
Fa
0  1e-07 1 0

0101000
+64 0 *
Ve
1e-07
60 0 0
0 0

0101101
*
Ve
1e-07
60 0 16.9
0 0

0101101
*
Ed
 1e-07 1 1 0
1  5 0 0 16.9
2  9 2 0 0 16.9
2  10 6 0 0 16.9
0

0101000
+62 0 -61 0 *
Ve
1e-07
50 0 16.9
0 0

0101101
*
Ed
 1e-07 1 1 0
1  6 0 0 10
2  11 2 0 0 10
2  12 7 0 0 10
0

0101000
-61 0 +59 0 *
Ve
1e-07
50 0 76.8
0 0

0101101
*
Ed
 1e-07 1 1 0
1  7 0 0 59.9
2  13 2 0 0 59.9
2  14 8 0 0 59.9
0

0101000
-57 0 +59 0 *
Ve
1e-07
60 0 76.8
0 0

0101101
*
Ed
 1e-07 1 1 0
1  8 0 0 10
2  15 2 0 0 10
2  16 9 0 0 10
0

0101000
-55 0 +57 0 *
Ve
1e-07
60 0 100
0 0

0101101
*
Ed
 1e-07 1 1 0
1  9 0 76.8 100
2  17 2 0 76.8 100
2  18 10 0 76.8 100
0

0101000
+55 0 -53 0 *
Ed
 1e-07 1 1 0
1  10 0 0 60
2  19 2 0 0 60
2  20 3 0 0 60
0

0101000
-53 0 +72 0 *
Ed
 1e-07 1 1 0
1  11 0 0 60
2  21 2 0 0 60
2  22 5 0 0 60
0

0101000
-62 0 +71 0 *
Wi

0101100
-60 0 +58 0 -56 0 -54 0 -52 0 +51 0 +70 0 -50 0 *
Fa
0  1e-07 2 0

0101000
+49 0 *
Ve
1e-07
60 50 100
0 0

0101101
*
Ed
 1e-07 1 1 0
1  12 0 0 60
2  23 3 0 0 60
2  24 4 0 0 60
0

0101000
-47 0 +69 0 *
Ed
 1e-07 1 1 0
1  13 0 0 50
2  25 3 0 0 50
2  26 10 0 0 50
0

0101000
-47 0 +53 0 *
Wi

0101100
-68 0 -46 0 +45 0 +51 0 *
Fa
0  1e-07 3 0

0101000
+44 0 *
Ve
1e-07
60 50 0
0 0

0101101
*
Ve
1e-07
60 50 16.9
0 0

0101101
*
Ed
 1e-07 1 1 0
1  14 0 0 16.9
2  27 4 0 0 16.9
2  28 6 0 0 16.9
0

0101000
+42 0 -41 0 *
Ve
1e-07
50 50 16.9
0 0

0101101
*
Ed
 1e-07 1 1 0
1  15 0 0 10
2  29 4 0 0 10
2  30 7 0 0 10
0

0101000
-41 0 +39 0 *
Ve
1e-07
50 50 76.8
0 0

0101101
*
Ed
 1e-07 1 1 0
1  16 0 0 59.9
2  31 4 0 0 59.9
2  32 8 0 0 59.9
0

0101000
-37 0 +39 0 *
Ve
1e-07
60 50 76.8
0 0

0101101
*
Ed
 1e-07 1 1 0
1  17 0 0 10
2  33 4 0 0 10
2  34 9 0 0 10
0

0101000
-35 0 +37 0 *
Ed
 1e-07 1 1 0
1  18 0 76.8 100
2  35 4 0 76.8 100
2  36 10 0 76.8 100
0

0101000
+35 0 -47 0 *
Ed
 1e-07 1 1 0
1  19 0 0 60
2  37 4 0 0 60
2  38 5 0 0 60
0

0101000
-42 0 +67 0 *
Wi

0101100
-40 0 +38 0 -36 0 -34 0 -33 0 +46 0 +66 0 -32 0 *
Fa
0  1e-07 4 0

0101000
+31 0 *
Ed
 1e-07 1 1 0
1  20 0 0 50
2  39 5 0 0 50
2  40 6 0 0 50
0

0101000
-42 0 +62 0 *
Wi

0101100
-65 0 -32 0 +50 0 +29 0 *
Ve
1e-07
15 25 0
0 0

0101101
*
Ed
 1e-07 1 1 0
1  21 0 0 6.28318530717959
2  41 5 0 0 6.28318530717959
2  42 11 0 0 6.28318530717959
0

0101000
+27 0 -27 0 *
Wi

0101100
+26 0 *
Fa
0  1e-07 5 0

0101000
+28 0 +25 0 *
Ed
 1e-07 1 1 0
1  22 0 0 50
2  43 6 0 0 50
2  44 7 0 0 50
0

0101000
-41 0 +61 0 *
Wi

0101100
-60 0 -23 0 +40 0 +29 0 *
Fa
0  1e-07 6 0

0101000
+22 0 *
Ed
 1e-07 1 1 0
1  23 0 0 50
2  45 7 0 0 50
2  46 8 0 0 50
0

0101000
-39 0 +59 0 *
Wi

0101100
-20 0 -38 0 +23 0 +58 0 *
Fa
0  1e-07 7 0

0101000
+19 0 *
Ed
 1e-07 1 1 0
1  24 0 0 50
2  47 8 0 0 50
2  48 9 0 0 50
0

0101000
-37 0 +57 0 *
Wi

0101100
-56 0 -17 0 +36 0 +20 0 *
Fa
0  1e-07 8 0

0101000
+16 0 *
Ed
 1e-07 1 1 0
1  25 0 0 50
2  49 9 0 0 50
2  50 10 0 0 50
0

0101000
-35 0 +55 0 *
Wi

0101100
-17 0 -34 0 +14 0 +54 0 *
Fa
0  1e-07 9 0

0101000
+13 0 *
Wi

0101100
-52 0 -45 0 +33 0 +14 0 *
Fa
0  1e-07 10 0

0101000
+11 0 *
Ve
1e-07
15 25 -50
0 0

0101101
*
Ed
 1e-07 1 1 0
1  26 0 0 6.28318530717959
2  51 11 0 0 6.28318530717959
2  52 12 0 0 6.28318530717959
0

0101000
+9 0 -9 0 *
Ed
 1e-07 1 1 0
1  27 0 0 50
3  53 54CN 11 0 0 50
0

0101000
-9 0 +27 0 *
Wi

0101100
-8 0 +7 0 +26 0 -7 0 *
Fa
0  1e-07 11 0

0101000
+6 0 *
Wi

0101100
+8 0 *
Fa
0  1e-07 12 0

0101000
+4 0 *
Sh

0101100
-63 0 -48 0 +43 0 +30 0 -24 0 +21 0 +18 0 +15 0 -12 0 +10 0 
+5 0 +3 0 *
So

1100000
+2 0 *

+1 0 
0

